<?xml version="1.0" encoding="UTF-8" standalone="no"?>
<!DOCTYPE svg PUBLIC "-//W3C//DTD SVG 1.1//EN" "http://www.w3.org/Graphics/SVG/1.1/DTD/svg11.dtd">
<svg width="100%" height="100%" viewBox="0 0 180 180" version="1.1" xmlns="http://www.w3.org/2000/svg" xmlns:xlink="http://www.w3.org/1999/xlink" xml:space="preserve" xmlns:serif="http://www.serif.com/" style="fill-rule:evenodd;clip-rule:evenodd;stroke-linejoin:round;stroke-miterlimit:2;">
    <path d="M180,45L180,135C180,159.836 159.836,180 135,180L45,180C20.164,180 0,159.836 0,135L0,45C0,20.164 20.164,0 45,0L135,0C159.836,0 180,20.164 180,45Z" style="fill:url(#_Linear1);"/>
    <path d="M77.274,99.965L77.274,52.535C77.274,34.143 92.246,19.172 110.661,19.172C129.075,19.172 144.023,34.143 144.023,52.535L144.023,67.482L130.859,67.482L130.859,52.535C130.859,41.398 121.798,32.336 110.661,32.336C99.524,32.336 90.437,41.397 90.437,52.535L90.437,99.965L77.274,99.965Z" style="fill:white;fill-rule:nonzero;"/>
    <path d="M51.654,121.799L70.899,121.799C73.219,121.799 75.368,122.678 76.98,124.314C78.616,125.951 79.52,128.1 79.52,130.396C79.52,135.134 75.661,138.993 70.899,138.993L33.823,138.993L33.823,121.799L46.768,121.799L46.768,108.17C43.226,107.144 40.613,103.847 40.613,99.964L40.613,77.129C40.613,72.391 44.472,68.556 49.21,68.556C53.924,68.556 57.783,72.39 57.783,77.129L57.783,99.964C57.783,103.823 55.194,107.12 51.652,108.17L51.654,121.799Z" style="fill:white;fill-rule:nonzero;"/>
    <path d="M154.965,160.827L22.883,160.827C21.54,160.827 20.441,159.728 20.441,158.385C20.441,157.042 21.54,155.943 22.883,155.943L70.9,155.943L70.9,143.878C78.349,143.878 84.406,137.821 84.406,130.396C84.406,126.806 82.99,123.411 80.45,120.846C77.91,118.306 74.515,116.914 70.9,116.914L70.9,104.849L96.227,104.849L96.227,155.943L154.965,155.943C156.308,155.943 157.407,157.042 157.407,158.386C157.407,159.729 156.308,160.828 154.965,160.828L154.965,160.827Z" style="fill:white;fill-rule:nonzero;"/>
    <path d="M150.23,154.868L122.782,154.868C122.306,154.868 121.877,154.583 121.693,154.144C121.654,154.052 120.736,151.856 119.51,148.161C118.38,144.759 116.77,139.399 115.512,133.18C114.095,126.175 113.403,119.528 113.457,113.423C113.524,105.742 114.778,98.896 117.182,93.075C117.365,92.632 117.796,92.344 118.275,92.344L154.738,92.344C155.216,92.344 155.648,92.632 155.83,93.075C158.235,98.896 159.489,105.742 159.556,113.423C159.61,119.528 158.918,126.175 157.501,133.18C156.243,139.399 154.632,144.759 153.503,148.161C152.277,151.856 151.358,154.052 151.32,154.144C151.135,154.583 150.706,154.868 150.23,154.868ZM147.492,150.229C148.145,150.229 148.674,149.699 148.674,149.046C148.674,148.394 148.145,147.865 147.492,147.865L125.521,147.865C124.868,147.865 124.339,148.394 124.339,149.046C124.339,149.699 124.868,150.229 125.521,150.229L147.492,150.229Z" style="fill:white;"/>
    <defs>
        <linearGradient id="_Linear1" x1="0" y1="0" x2="1" y2="0" gradientUnits="userSpaceOnUse" gradientTransform="matrix(1.10218e-14,180,-180,1.10218e-14,0,0)"><stop offset="0" style="stop-color:rgb(0,122,255);stop-opacity:1"/><stop offset="1" style="stop-color:rgb(0,86,179);stop-opacity:1"/></linearGradient>
    </defs>
</svg>
