<?xml version="1.0" encoding="UTF-8" standalone="no"?>
<!DOCTYPE svg PUBLIC "-//W3C//DTD SVG 1.1//EN" "http://www.w3.org/Graphics/SVG/1.1/DTD/svg11.dtd">
<svg width="100%" height="100%" viewBox="0 0 24 24" version="1.1" xmlns="http://www.w3.org/2000/svg" xmlns:xlink="http://www.w3.org/1999/xlink" xml:space="preserve" xmlns:serif="http://www.serif.com/" style="fill-rule:evenodd;clip-rule:evenodd;stroke-linejoin:round;stroke-miterlimit:2;">
    <path d="M10.137,13.594L10.137,6.008C10.137,3.066 12.531,0.672 15.476,0.672C18.422,0.672 20.812,3.066 20.812,6.008L20.812,8.398L18.707,8.398L18.707,6.008C18.707,4.227 17.258,2.777 15.477,2.777C13.695,2.777 12.242,4.227 12.242,6.008L12.242,13.594L10.137,13.594Z" style="fill-rule:nonzero;"/>
    <path d="M6.039,17.086L9.117,17.086C9.488,17.086 9.832,17.226 10.09,17.488C10.351,17.75 10.496,18.094 10.496,18.461C10.496,19.219 9.879,19.836 9.117,19.836L3.187,19.836L3.187,17.086L5.258,17.086L5.258,14.906C4.691,14.742 4.273,14.215 4.273,13.594L4.273,9.941C4.273,9.184 4.89,8.57 5.648,8.57C6.402,8.57 7.019,9.184 7.019,9.941L7.019,13.594C7.019,14.211 6.605,14.738 6.039,14.906L6.039,17.086Z" style="fill-rule:nonzero;"/>
    <path d="M22.562,23.328L1.438,23.328C1.223,23.328 1.047,23.152 1.047,22.937C1.047,22.723 1.223,22.547 1.438,22.547L9.117,22.547L9.117,20.617C10.309,20.617 11.277,19.648 11.277,18.461C11.277,17.887 11.051,17.344 10.645,16.934C10.238,16.527 9.695,16.305 9.117,16.305L9.117,14.375L13.168,14.375L13.168,22.547L22.562,22.547C22.777,22.547 22.953,22.723 22.953,22.938C22.953,23.152 22.777,23.328 22.562,23.328L22.562,23.328Z" style="fill-rule:nonzero;"/>
    <path d="M19.61,10.241C19.61,10.241 21.579,12.161 21.579,13.519C21.579,14.606 20.698,15.488 19.61,15.488C18.523,15.488 17.641,14.607 17.641,13.519C17.641,12.155 19.61,10.241 19.61,10.241Z" style="fill-rule:nonzero;"/>
</svg>
