<?xml version="1.0" encoding="UTF-8" standalone="no"?>
<!DOCTYPE svg PUBLIC "-//W3C//DTD SVG 1.1//EN" "http://www.w3.org/Graphics/SVG/1.1/DTD/svg11.dtd">
<svg width="100%" height="100%" viewBox="0 0 24 24" version="1.1" xmlns="http://www.w3.org/2000/svg" xmlns:xlink="http://www.w3.org/1999/xlink" xml:space="preserve" xmlns:serif="http://www.serif.com/" style="fill-rule:evenodd;clip-rule:evenodd;stroke-linejoin:round;stroke-miterlimit:2;">
    <path d="M16.39,23.328L7.61,23.328C7.458,23.328 7.32,23.237 7.261,23.096C7.249,23.067 6.955,22.364 6.563,21.182C6.202,20.094 5.687,18.38 5.284,16.39C4.831,14.15 4.61,12.023 4.627,10.07C4.648,7.614 5.049,5.424 5.819,3.562C5.877,3.42 6.015,3.328 6.168,3.328L17.832,3.328C17.985,3.328 18.123,3.42 18.181,3.562C18.951,5.424 19.351,7.614 19.373,10.07C19.39,12.023 19.169,14.15 18.716,16.39C18.313,18.38 17.798,20.094 17.437,21.182C17.045,22.364 16.751,23.067 16.739,23.096C16.679,23.237 16.542,23.328 16.39,23.328ZM15.514,21.844C15.723,21.844 15.892,21.675 15.892,21.466C15.892,21.257 15.723,21.088 15.514,21.088L8.486,21.088C8.277,21.088 8.108,21.257 8.108,21.466C8.108,21.675 8.277,21.844 8.486,21.844L15.514,21.844Z"/>
</svg>
