<svg xmlns="http://www.w3.org/2000/svg" xmlns:xlink="http://www.w3.org/1999/xlink" version="1.1" x="0px" y="0px" viewBox="0 0 2000 2500" style="enable-background:new 0 0 2000 2000;" xml:space="preserve"><g><g><path d="M1255.65,1619.53H761.81c-11.04,0-21-6.6-25.32-16.76c-1.22-2.87-30.13-71.29-59.45-165.65    c-39.64-127.57-59.74-236.04-59.74-322.4c0-15.19,12.31-27.5,27.5-27.5s27.5,12.31,27.5,27.5c0,165.69,83.32,387.66,108.01,449.8    h475.34c15.19,0,27.5,12.31,27.5,27.5S1270.84,1619.53,1255.65,1619.53z"/></g><g><path d="M1319.37,1727.5H680.63c-11.08,0-21.07-6.64-25.36-16.86c-0.9-2.13-22.26-53.24-50.8-139.23    c-26.28-79.16-63.75-203.9-93.03-348.62c-32.98-163.02-49.07-317.71-47.83-459.78c1.57-178.73,30.74-338.05,86.7-473.52    c4.25-10.29,14.29-17,25.42-17h848.55c11.13,0,21.17,6.71,25.42,17c55.96,135.47,85.13,294.78,86.7,473.52    c1.25,142.07-14.85,296.76-47.83,459.78c-29.28,144.72-66.75,269.46-93.03,348.62c-28.54,85.99-49.91,137.09-50.8,139.23    C1340.44,1720.86,1330.45,1727.5,1319.37,1727.5z M699.23,1672.5h601.54c21.29-54.33,88.23-234.5,134.1-461.68    c49.34-244.37,83.55-593.86-29.19-883.32H594.32c-112.75,289.47-78.53,638.96-29.19,883.32    C610.99,1437.98,677.93,1618.15,699.23,1672.5z"/></g></g><text x="0" y="2015" fill="#000000" font-size="5px" font-weight="bold" font-family="'Helvetica Neue', Helvetica, Arial-Unicode, Arial, Sans-serif">Created by inezza ardelia jassmine</text><text x="0" y="2020" fill="#000000" font-size="5px" font-weight="bold" font-family="'Helvetica Neue', Helvetica, Arial-Unicode, Arial, Sans-serif">from the Noun Project</text></svg>