<svg xmlns="http://www.w3.org/2000/svg" version="1.1" viewBox="-5.0 -10.0 110.0 135.0">
 <path d="m57.453 57.938v-30.344c0-11.766-9.5781-21.344-21.359-21.344s-21.344 9.5781-21.344 21.344v9.5625h8.4219v-9.5625c0-7.125 5.7969-12.922 12.922-12.922s12.938 5.7969 12.938 12.922v30.344z"/>
 <path d="m73.844 71.906h-12.312c-1.4844 0-2.8594 0.5625-3.8906 1.6094-1.0469 1.0469-1.625 2.4219-1.625 3.8906 0 3.0312 2.4688 5.5 5.5156 5.5h23.719v-11h-8.2812v-8.7188c2.2656-0.65625 3.9375-2.7656 3.9375-5.25v-14.609c0-3.0312-2.4688-5.4844-5.5-5.4844-3.0156 0-5.4844 2.4531-5.4844 5.4844v14.609c0 2.4688 1.6562 4.5781 3.9219 5.25z"/>
 <path d="m7.75 96.875h84.5c0.85938 0 1.5625-0.70312 1.5625-1.5625s-0.70312-1.5625-1.5625-1.5625h-30.719v-7.7188c-4.7656 0-8.6406-3.875-8.6406-8.625 0-2.2969 0.90625-4.4688 2.5312-6.1094 1.625-1.625 3.7969-2.5156 6.1094-2.5156v-7.7188h-16.203v32.688h-37.578c-0.85938 0-1.5625 0.70312-1.5625 1.5625s0.70312 1.5625 1.5625 1.5625z"/>
 <path d="m19.559 44.527s-7.875 7.6797-7.875 13.113c0 4.3477 3.5234 7.875 7.875 7.875 4.3477 0 7.875-3.5234 7.875-7.875 0-5.457-7.875-13.113-7.875-13.113z"/>
<text x="0.0" y="117.5" font-size="5.0" font-weight="bold" font-family="Arbeit Regular, Helvetica, Arial-Unicode, Arial, Sans-serif" fill="#000000">Created by Hermawan</text><text x="0.0" y="122.5" font-size="5.0" font-weight="bold" font-family="Arbeit Regular, Helvetica, Arial-Unicode, Arial, Sans-serif" fill="#000000">from Noun Project</text></svg>